<?xml version="1.0" encoding="UTF-8"?><!DOCTYPE svg PUBLIC "-//W3C//DTD SVG 1.1//EN" "http://www.w3.org/Graphics/SVG/1.1/DTD/svg11.dtd"><svg xmlns="http://www.w3.org/2000/svg" xmlns:xlink="http://www.w3.org/1999/xlink" version="1.1" width="50.796mm" height="42.33mm" viewBox="-6 -7 12 10"><defs/><g><g id="cell-TLKrsVqt_wnBqTFPdoy2-0" layer="Symbol"><path fill="none" stroke="none" pointer-events="all" d="M-1-0.5a0.5 0.5 0 1 0 1 0 0.5 0.5 0 1 0-1 0" stroke-width="0.25" stroke-linecap="round" stroke-linejoin="round"/></g><g id="cell-LxGGCtFgPDuxwpYXM28w-0" content="&lt;object label=&quot;Connection&quot; PipingConnector=&quot;Y&quot; LabelConnector=&quot;N&quot; SignalConnector=&quot;N&quot; Direction=&quot;0, 90, 180, 270&quot; AuxiliaryConnector=&quot;N&quot;/&gt;" data-label="Connection" data-PipingConnector="Y" data-LabelConnector="N" data-SignalConnector="N" data-Direction="0, 90, 180, 270" data-AuxiliaryConnector="N" layer="Connection"><ellipse cx="0" cy="0" rx="0.375" ry="0.375" fill="none" stroke="#00ff00" vector-effect="non-scaling-stroke"/></g><g id="cell-8oln3En7BdZpSJeIlfM0-21" content="&lt;object label=&quot;origo&quot;/&gt;" data-label="origo" layer="Origo"><ellipse cx="0" cy="0" rx="0.25" ry="0.25" fill="none" stroke="#ff0000" vector-effect="non-scaling-stroke"/></g></g><g layer="Dimension"><text x="3" y="-3.1" font-size="0.2mm" font-family="Helvetica" text-anchor="middle" fill="#777777" stroke-linecap="round" stroke-linejoin="round">W: 0</text><path d="M-1,-3 5,-3 M0,-3 -0.7,-3.35 M0,-3 -0.7,-2.65 M0,-3 0.7,-3.35 M0,-3 0.7,-2.65 M0,-2.6 0,-3.4 M0,-2.6 0,-3.4" stroke="#777777" vector-effect="non-scaling-stroke" stroke-linecap="round" stroke-linejoin="round"/><text x="-3.1" y="-2.5" font-size="0.2mm" font-family="Helvetica" text-anchor="middle" fill="#777777" transform="rotate(-90 -3.1 -2.5)" stroke-linecap="round" stroke-linejoin="round">H: 0</text><path d="M-3.0000000000000004-4L-3 1M-3 0L-2.6500000000000004-0.7000000000000002M-3 0L-3.35-0.7000000000000002M-3 0L-2.6500000000000004 0.7000000000000002M-3 0L-3.35 0.7000000000000002M-3.4000000000000004 0L-2.6 0M-3.4000000000000004 0L-2.6 0" stroke="#777777" vector-effect="non-scaling-stroke" stroke-linecap="round" stroke-linejoin="round"/></g><g layer="SymbolRegistrationNumber"><text x="-5" y="-5.230769217014313" font-size="0.2mm" font-family="Helvetica" text-anchor="start" fill="#000000" stroke-linecap="round" stroke-linejoin="round">ND0000</text></g><g layer="Grid"><g layer="Grid_micro"><path d="M-6,-7 6,-7" fill="none" stroke="rgb(216, 216, 216)" stroke-opacity="0.5" stroke-width="0.25" vector-effect="non-scaling-stroke" stroke-linecap="round" stroke-linejoin="round"/><path d="M-6,-6 6,-6" fill="none" stroke="rgb(216, 216, 216)" stroke-opacity="0.5" stroke-width="0.25" vector-effect="non-scaling-stroke" stroke-linecap="round" stroke-linejoin="round"/><path d="M-6,-5 6,-5" fill="none" stroke="rgb(216, 216, 216)" stroke-opacity="0.5" stroke-width="0.25" vector-effect="non-scaling-stroke" stroke-linecap="round" stroke-linejoin="round"/><path d="M-6,-4 6,-4" fill="none" stroke="rgb(216, 216, 216)" stroke-opacity="0.5" stroke-width="0.25" vector-effect="non-scaling-stroke" stroke-linecap="round" stroke-linejoin="round"/><path d="M-6,-3 6,-3" fill="none" stroke="rgb(216, 216, 216)" stroke-opacity="0.5" stroke-width="0.25" vector-effect="non-scaling-stroke" stroke-linecap="round" stroke-linejoin="round"/><path d="M-6,-2 6,-2" fill="none" stroke="rgb(216, 216, 216)" stroke-opacity="0.5" stroke-width="0.25" vector-effect="non-scaling-stroke" stroke-linecap="round" stroke-linejoin="round"/><path d="M-6,-1 6,-1" fill="none" stroke="rgb(216, 216, 216)" stroke-opacity="0.5" stroke-width="0.25" vector-effect="non-scaling-stroke" stroke-linecap="round" stroke-linejoin="round"/><path d="M-6,0 6,0" fill="none" stroke="rgb(216, 216, 216)" stroke-opacity="0.5" stroke-width="0.25" vector-effect="non-scaling-stroke" stroke-linecap="round" stroke-linejoin="round"/><path d="M-6,1 6,1" fill="none" stroke="rgb(216, 216, 216)" stroke-opacity="0.5" stroke-width="0.25" vector-effect="non-scaling-stroke" stroke-linecap="round" stroke-linejoin="round"/><path d="M-6,2 6,2" fill="none" stroke="rgb(216, 216, 216)" stroke-opacity="0.5" stroke-width="0.25" vector-effect="non-scaling-stroke" stroke-linecap="round" stroke-linejoin="round"/><path d="M-6,-7 -6,3" fill="none" stroke="rgb(216, 216, 216)" stroke-opacity="0.5" stroke-width="0.25" vector-effect="non-scaling-stroke" stroke-linecap="round" stroke-linejoin="round"/><path d="M-5,-7 -5,3" fill="none" stroke="rgb(216, 216, 216)" stroke-opacity="0.5" stroke-width="0.25" vector-effect="non-scaling-stroke" stroke-linecap="round" stroke-linejoin="round"/><path d="M-4,-7 -4,3" fill="none" stroke="rgb(216, 216, 216)" stroke-opacity="0.5" stroke-width="0.25" vector-effect="non-scaling-stroke" stroke-linecap="round" stroke-linejoin="round"/><path d="M-3,-7 -3,3" fill="none" stroke="rgb(216, 216, 216)" stroke-opacity="0.5" stroke-width="0.25" vector-effect="non-scaling-stroke" stroke-linecap="round" stroke-linejoin="round"/><path d="M-2,-7 -2,3" fill="none" stroke="rgb(216, 216, 216)" stroke-opacity="0.5" stroke-width="0.25" vector-effect="non-scaling-stroke" stroke-linecap="round" stroke-linejoin="round"/><path d="M-1,-7 -1,3" fill="none" stroke="rgb(216, 216, 216)" stroke-opacity="0.5" stroke-width="0.25" vector-effect="non-scaling-stroke" stroke-linecap="round" stroke-linejoin="round"/><path d="M0,-7 0,3" fill="none" stroke="rgb(216, 216, 216)" stroke-opacity="0.5" stroke-width="0.25" vector-effect="non-scaling-stroke" stroke-linecap="round" stroke-linejoin="round"/><path d="M1,-7 1,3" fill="none" stroke="rgb(216, 216, 216)" stroke-opacity="0.5" stroke-width="0.25" vector-effect="non-scaling-stroke" stroke-linecap="round" stroke-linejoin="round"/><path d="M2,-7 2,3" fill="none" stroke="rgb(216, 216, 216)" stroke-opacity="0.5" stroke-width="0.25" vector-effect="non-scaling-stroke" stroke-linecap="round" stroke-linejoin="round"/><path d="M3,-7 3,3" fill="none" stroke="rgb(216, 216, 216)" stroke-opacity="0.5" stroke-width="0.25" vector-effect="non-scaling-stroke" stroke-linecap="round" stroke-linejoin="round"/><path d="M4,-7 4,3" fill="none" stroke="rgb(216, 216, 216)" stroke-opacity="0.5" stroke-width="0.25" vector-effect="non-scaling-stroke" stroke-linecap="round" stroke-linejoin="round"/><path d="M5,-7 5,3" fill="none" stroke="rgb(216, 216, 216)" stroke-opacity="0.5" stroke-width="0.25" vector-effect="non-scaling-stroke" stroke-linecap="round" stroke-linejoin="round"/></g><g layer="Grid_minor"><path d="M-6,-5 6,-5" fill="none" stroke="#7f7f7f" stroke-opacity="0.2" stroke-width="0.5" stroke-dasharray="1.0, 2.0" vector-effect="non-scaling-stroke" stroke-linecap="round" stroke-linejoin="round"/><path d="M-6,0 6,0" fill="none" stroke="#7f7f7f" stroke-opacity="0.2" stroke-width="0.5" stroke-dasharray="1.0, 2.0" vector-effect="non-scaling-stroke" stroke-linecap="round" stroke-linejoin="round"/><path d="M-5,-7 -5,3" fill="none" stroke="#7f7f7f" stroke-opacity="0.2" stroke-width="0.5" stroke-dasharray="1.0, 2.0" vector-effect="non-scaling-stroke" stroke-linecap="round" stroke-linejoin="round"/><path d="M0,-7 0,3" fill="none" stroke="#7f7f7f" stroke-opacity="0.2" stroke-width="0.5" stroke-dasharray="1.0, 2.0" vector-effect="non-scaling-stroke" stroke-linecap="round" stroke-linejoin="round"/><path d="M5,-7 5,3" fill="none" stroke="#7f7f7f" stroke-opacity="0.2" stroke-width="0.5" stroke-dasharray="1.0, 2.0" vector-effect="non-scaling-stroke" stroke-linecap="round" stroke-linejoin="round"/></g><g layer="Grid_major"><path d="M-6,0 6,0" fill="none" stroke="#0f0f0f" stroke-opacity="0.2" stroke-width="1" vector-effect="non-scaling-stroke" stroke-linecap="round" stroke-linejoin="round"/><path d="M0,-7 0,3" fill="none" stroke="#0f0f0f" stroke-opacity="0.2" stroke-width="1" vector-effect="non-scaling-stroke" stroke-linecap="round" stroke-linejoin="round"/></g></g></svg>