<?xml version="1.0" encoding="UTF-8"?><!DOCTYPE svg PUBLIC "-//W3C//DTD SVG 1.1//EN" "http://www.w3.org/Graphics/SVG/1.1/DTD/svg11.dtd"><svg xmlns="http://www.w3.org/2000/svg" xmlns:xlink="http://www.w3.org/1999/xlink" version="1.1" width="46.563mm" height="42.33mm" viewBox="-5 -6 11 10"><defs/><g><g id="cell-odMqbAk-kIh5x3CJw2EW-0" layer="Symbol"><path fill="none" stroke="none" pointer-events="all" d="M-1-0.5a0.5 0.5 0 1 0 1 0 0.5 0.5 0 1 0-1 0" stroke-width="0.25" stroke-linecap="round" stroke-linejoin="round"/></g><g id="cell-H5sSJ_zDWDha90w6UZLX-0" layer="Label"><path fill="none" stroke="#ff0000" pointer-events="all" d="M0-8L128-8 128 8 0 8z" stroke-linecap="round" stroke-linejoin="round"/><g><text x="6" y="12" fill="#FF0000" font-family="Helvetica" font-size="9px" transform="translate(-4 -8) translate(-0.5 -0.5)" stroke-linecap="round" stroke-linejoin="round">1A</text></g></g><g id="cell-H5sSJ_zDWDha90w6UZLX-1" content="&lt;object label=&quot;origo&quot;/&gt;" data-label="origo" layer="Origo"><ellipse cx="0" cy="0" rx="0.25" ry="0.25" fill="none" stroke="#ff0000" vector-effect="non-scaling-stroke"/></g></g><g layer="Dimension"><text x="3" y="-3.1" font-size="0.2mm" font-family="Helvetica" text-anchor="middle" fill="#777777" stroke-linecap="round" stroke-linejoin="round">W: 0</text><path d="M-1,-3 5,-3 M0,-3 -0.7,-3.35 M0,-3 -0.7,-2.65 M0,-3 0.7,-3.35 M0,-3 0.7,-2.65 M0,-2.6 0,-3.4 M0,-2.6 0,-3.4" stroke="#777777" vector-effect="non-scaling-stroke" stroke-linecap="round" stroke-linejoin="round"/><text x="-3.1" y="-2.5" font-size="0.2mm" font-family="Helvetica" text-anchor="middle" fill="#777777" transform="rotate(-90 -3.1 -2.5)" stroke-linecap="round" stroke-linejoin="round">H: 0</text><path d="M-3.0000000000000004-4L-3 1M-3 0L-2.6500000000000004-0.7000000000000002M-3 0L-3.35-0.7000000000000002M-3 0L-2.6500000000000004 0.7000000000000002M-3 0L-3.35 0.7000000000000002M-3.4000000000000004 0L-2.6 0M-3.4000000000000004 0L-2.6 0" stroke="#777777" vector-effect="non-scaling-stroke" stroke-linecap="round" stroke-linejoin="round"/></g><g layer="SymbolRegistrationNumber"><text x="-4" y="-4.058823525905609" font-size="0.2mm" font-family="Helvetica" text-anchor="start" fill="#000000" stroke-linecap="round" stroke-linejoin="round">ND0041</text></g><g layer="Grid"><g layer="Grid_micro"><path d="M-5,-6 6,-6" fill="none" stroke="rgb(216, 216, 216)" stroke-opacity="0.5" stroke-width="0.25" vector-effect="non-scaling-stroke" stroke-linecap="round" stroke-linejoin="round"/><path d="M-5,-5 6,-5" fill="none" stroke="rgb(216, 216, 216)" stroke-opacity="0.5" stroke-width="0.25" vector-effect="non-scaling-stroke" stroke-linecap="round" stroke-linejoin="round"/><path d="M-5,-4 6,-4" fill="none" stroke="rgb(216, 216, 216)" stroke-opacity="0.5" stroke-width="0.25" vector-effect="non-scaling-stroke" stroke-linecap="round" stroke-linejoin="round"/><path d="M-5,-3 6,-3" fill="none" stroke="rgb(216, 216, 216)" stroke-opacity="0.5" stroke-width="0.25" vector-effect="non-scaling-stroke" stroke-linecap="round" stroke-linejoin="round"/><path d="M-5,-2 6,-2" fill="none" stroke="rgb(216, 216, 216)" stroke-opacity="0.5" stroke-width="0.25" vector-effect="non-scaling-stroke" stroke-linecap="round" stroke-linejoin="round"/><path d="M-5,-1 6,-1" fill="none" stroke="rgb(216, 216, 216)" stroke-opacity="0.5" stroke-width="0.25" vector-effect="non-scaling-stroke" stroke-linecap="round" stroke-linejoin="round"/><path d="M-5,0 6,0" fill="none" stroke="rgb(216, 216, 216)" stroke-opacity="0.5" stroke-width="0.25" vector-effect="non-scaling-stroke" stroke-linecap="round" stroke-linejoin="round"/><path d="M-5,1 6,1" fill="none" stroke="rgb(216, 216, 216)" stroke-opacity="0.5" stroke-width="0.25" vector-effect="non-scaling-stroke" stroke-linecap="round" stroke-linejoin="round"/><path d="M-5,2 6,2" fill="none" stroke="rgb(216, 216, 216)" stroke-opacity="0.5" stroke-width="0.25" vector-effect="non-scaling-stroke" stroke-linecap="round" stroke-linejoin="round"/><path d="M-5,3 6,3" fill="none" stroke="rgb(216, 216, 216)" stroke-opacity="0.5" stroke-width="0.25" vector-effect="non-scaling-stroke" stroke-linecap="round" stroke-linejoin="round"/><path d="M-5,-6 -5,4" fill="none" stroke="rgb(216, 216, 216)" stroke-opacity="0.5" stroke-width="0.25" vector-effect="non-scaling-stroke" stroke-linecap="round" stroke-linejoin="round"/><path d="M-4,-6 -4,4" fill="none" stroke="rgb(216, 216, 216)" stroke-opacity="0.5" stroke-width="0.25" vector-effect="non-scaling-stroke" stroke-linecap="round" stroke-linejoin="round"/><path d="M-3,-6 -3,4" fill="none" stroke="rgb(216, 216, 216)" stroke-opacity="0.5" stroke-width="0.25" vector-effect="non-scaling-stroke" stroke-linecap="round" stroke-linejoin="round"/><path d="M-2,-6 -2,4" fill="none" stroke="rgb(216, 216, 216)" stroke-opacity="0.5" stroke-width="0.25" vector-effect="non-scaling-stroke" stroke-linecap="round" stroke-linejoin="round"/><path d="M-1,-6 -1,4" fill="none" stroke="rgb(216, 216, 216)" stroke-opacity="0.5" stroke-width="0.25" vector-effect="non-scaling-stroke" stroke-linecap="round" stroke-linejoin="round"/><path d="M0,-6 0,4" fill="none" stroke="rgb(216, 216, 216)" stroke-opacity="0.5" stroke-width="0.25" vector-effect="non-scaling-stroke" stroke-linecap="round" stroke-linejoin="round"/><path d="M1,-6 1,4" fill="none" stroke="rgb(216, 216, 216)" stroke-opacity="0.5" stroke-width="0.25" vector-effect="non-scaling-stroke" stroke-linecap="round" stroke-linejoin="round"/><path d="M2,-6 2,4" fill="none" stroke="rgb(216, 216, 216)" stroke-opacity="0.5" stroke-width="0.25" vector-effect="non-scaling-stroke" stroke-linecap="round" stroke-linejoin="round"/><path d="M3,-6 3,4" fill="none" stroke="rgb(216, 216, 216)" stroke-opacity="0.5" stroke-width="0.25" vector-effect="non-scaling-stroke" stroke-linecap="round" stroke-linejoin="round"/><path d="M4,-6 4,4" fill="none" stroke="rgb(216, 216, 216)" stroke-opacity="0.5" stroke-width="0.25" vector-effect="non-scaling-stroke" stroke-linecap="round" stroke-linejoin="round"/><path d="M5,-6 5,4" fill="none" stroke="rgb(216, 216, 216)" stroke-opacity="0.5" stroke-width="0.25" vector-effect="non-scaling-stroke" stroke-linecap="round" stroke-linejoin="round"/></g><g layer="Grid_minor"><path d="M-5,-5 6,-5" fill="none" stroke="#7f7f7f" stroke-opacity="0.2" stroke-width="0.5" stroke-dasharray="1.0, 2.0" vector-effect="non-scaling-stroke" stroke-linecap="round" stroke-linejoin="round"/><path d="M-5,0 6,0" fill="none" stroke="#7f7f7f" stroke-opacity="0.2" stroke-width="0.5" stroke-dasharray="1.0, 2.0" vector-effect="non-scaling-stroke" stroke-linecap="round" stroke-linejoin="round"/><path d="M-5,-6 -5,4" fill="none" stroke="#7f7f7f" stroke-opacity="0.2" stroke-width="0.5" stroke-dasharray="1.0, 2.0" vector-effect="non-scaling-stroke" stroke-linecap="round" stroke-linejoin="round"/><path d="M0,-6 0,4" fill="none" stroke="#7f7f7f" stroke-opacity="0.2" stroke-width="0.5" stroke-dasharray="1.0, 2.0" vector-effect="non-scaling-stroke" stroke-linecap="round" stroke-linejoin="round"/><path d="M5,-6 5,4" fill="none" stroke="#7f7f7f" stroke-opacity="0.2" stroke-width="0.5" stroke-dasharray="1.0, 2.0" vector-effect="non-scaling-stroke" stroke-linecap="round" stroke-linejoin="round"/></g><g layer="Grid_major"><path d="M-5,0 6,0" fill="none" stroke="#0f0f0f" stroke-opacity="0.2" stroke-width="1" vector-effect="non-scaling-stroke" stroke-linecap="round" stroke-linejoin="round"/><path d="M0,-6 0,4" fill="none" stroke="#0f0f0f" stroke-opacity="0.2" stroke-width="1" vector-effect="non-scaling-stroke" stroke-linecap="round" stroke-linejoin="round"/></g></g></svg>