<?xml version="1.0" encoding="UTF-8"?><!DOCTYPE svg PUBLIC "-//W3C//DTD SVG 1.1//EN" "http://www.w3.org/Graphics/SVG/1.1/DTD/svg11.dtd"><svg xmlns="http://www.w3.org/2000/svg" xmlns:xlink="http://www.w3.org/1999/xlink" version="1.1" width="17.9902mm" height="229.111mm" viewBox="-0.0625 -0.0625 4.25 54.125"><defs vector-effect="non-scaling-stroke"/><g><g id="cell-NZ9D4jzbQdlXrxmxBGxv-8" layer="Symbol"><path fill="#000000" stroke="rgb(0, 0, 0)" pointer-events="all" d="M1 50L3 50 3 54 1 54z" stroke-width="0.25" stroke-linecap="round" stroke-linejoin="round"/></g><g id="cell-NZ9D4jzbQdlXrxmxBGxv-7" layer="Symbol"><path d="M0 0L4 0" fill="none" stroke="rgb(0, 0, 0)" stroke-miterlimit="10" pointer-events="stroke" stroke-width="0.25" stroke-linecap="round" stroke-linejoin="round"/></g><g id="cell-NZ9D4jzbQdlXrxmxBGxv-6" layer="Symbol"><path d="M0 2L4 2" fill="none" stroke="rgb(0, 0, 0)" stroke-miterlimit="10" pointer-events="stroke" stroke-width="0.25" stroke-linecap="round" stroke-linejoin="round"/></g><g id="cell-NZ9D4jzbQdlXrxmxBGxv-5" layer="Symbol"><path d="M2 6L2 2" fill="none" stroke="rgb(0, 0, 0)" stroke-miterlimit="10" pointer-events="stroke" stroke-width="0.25" stroke-linecap="round" stroke-linejoin="round"/></g><g id="cell-NZ9D4jzbQdlXrxmxBGxv-4" layer="Symbol"><path fill="#000000" stroke="rgb(0, 0, 0)" pointer-events="all" d="M1 42L3 42 3 46 1 46z" stroke-width="0.25" stroke-linecap="round" stroke-linejoin="round"/></g><g id="cell-NZ9D4jzbQdlXrxmxBGxv-3" layer="Symbol"><path fill="#000000" stroke="rgb(0, 0, 0)" pointer-events="all" d="M1 34L3 34 3 38 1 38z" stroke-width="0.25" stroke-linecap="round" stroke-linejoin="round"/></g><g id="cell-NZ9D4jzbQdlXrxmxBGxv-2" layer="Symbol"><path fill="#000000" stroke="rgb(0, 0, 0)" pointer-events="all" d="M1 26L3 26 3 30 1 30z" stroke-width="0.25" stroke-linecap="round" stroke-linejoin="round"/></g><g id="cell-NZ9D4jzbQdlXrxmxBGxv-1" layer="Symbol"><path fill="#000000" stroke="rgb(0, 0, 0)" pointer-events="all" d="M1 18L3 18 3 22 1 22z" stroke-width="0.25" stroke-linecap="round" stroke-linejoin="round"/></g><g id="cell-NZ9D4jzbQdlXrxmxBGxv-0" layer="Symbol"><path fill="#000000" stroke="rgb(0, 0, 0)" pointer-events="all" d="M1 10L3 10 3 14 1 14z" stroke-width="0.25" stroke-linecap="round" stroke-linejoin="round"/></g><g id="cell-U1XBBmectsp78E5T3mQc-0" layer="Symbol"><path fill="none" stroke="rgb(0, 0, 0)" pointer-events="all" d="M1 6L3 6 3 54 1 54z" stroke-width="0.25" stroke-linecap="round" stroke-linejoin="round"/></g></g></svg>