<?xml version="1.0" encoding="UTF-8"?><!DOCTYPE svg PUBLIC "-//W3C//DTD SVG 1.1//EN" "http://www.w3.org/Graphics/SVG/1.1/DTD/svg11.dtd"><svg xmlns="http://www.w3.org/2000/svg" xmlns:xlink="http://www.w3.org/1999/xlink" version="1.1" width="119.053mm" height="203.713mm" viewBox="-0.0625 -0.0625 28.125 48.125"><defs vector-effect="non-scaling-stroke"/><g><g id="cell-qMdmYb9l_b1JFHeHj_cX-10" layer="Symbol"><path fill="#000000" stroke="rgb(0, 0, 0)" pointer-events="all" d="M3 41.875a1 1 0 1 0 2 0 1 1 0 1 0-2 0" stroke-width="0.25" stroke-linecap="round" stroke-linejoin="round"/></g><g id="cell-qMdmYb9l_b1JFHeHj_cX-6" layer="Symbol"><path fill="#000000" stroke="rgb(0, 0, 0)" pointer-events="all" d="M23 41.875a1 1 0 1 0 2 0 1 1 0 1 0-2 0" stroke-width="0.25" stroke-linecap="round" stroke-linejoin="round"/></g><g id="cell-qMdmYb9l_b1JFHeHj_cX-5" layer="Symbol"><path d="M14 12L24 4" fill="none" stroke="rgb(0, 0, 0)" stroke-miterlimit="10" pointer-events="stroke" stroke-width="0.25" stroke-linecap="round" stroke-linejoin="round"/></g><g id="cell-qMdmYb9l_b1JFHeHj_cX-4" layer="Symbol"><path d="M14 11.9975L4 4" fill="none" stroke="rgb(0, 0, 0)" stroke-miterlimit="10" pointer-events="stroke" stroke-width="0.25" stroke-linecap="round" stroke-linejoin="round"/></g><g id="cell-qMdmYb9l_b1JFHeHj_cX-3" layer="Symbol"><path d="M24 40.875L24 4" fill="none" stroke="rgb(0, 0, 0)" stroke-miterlimit="10" pointer-events="stroke" stroke-width="0.25" stroke-linecap="round" stroke-linejoin="round"/></g><g id="cell-qMdmYb9l_b1JFHeHj_cX-2" layer="Symbol"><path d="M4 40.875L4.00625 4.00375" fill="none" stroke="rgb(0, 0, 0)" stroke-miterlimit="10" pointer-events="stroke" stroke-width="0.25" stroke-linecap="round" stroke-linejoin="round"/></g><g id="cell-qMdmYb9l_b1JFHeHj_cX-1" layer="Symbol"><path fill="none" stroke="rgb(0, 0, 0)" pointer-events="all" d="M0 34L28 34 28 48 0 48z" stroke-width="0.25" stroke-linecap="round" stroke-linejoin="round"/></g><g id="cell-qMdmYb9l_b1JFHeHj_cX-0" layer="Symbol"><path fill="none" stroke="rgb(0, 0, 0)" pointer-events="all" d="M0 0L28 0 28 14 0 14z" stroke-width="0.25" stroke-linecap="round" stroke-linejoin="round"/></g></g></svg>