<?xml version="1.0" encoding="UTF-8"?><!DOCTYPE svg PUBLIC "-//W3C//DTD SVG 1.1//EN" "http://www.w3.org/Graphics/SVG/1.1/DTD/svg11.dtd"><svg xmlns="http://www.w3.org/2000/svg" xmlns:xlink="http://www.w3.org/1999/xlink" version="1.1" width="279.378mm" height="956.658mm" viewBox="-32.5 -192.5 66 226"><defs/><g><g id="cell-hvqG68CwU8eaP7pLt7YK-9" content="&lt;object label=&quot;origo&quot;/&gt;" data-label="origo" layer="Origo"><path d="M-4 0C-4-2.210000000000008-2.210000000000001-4 0-4 2.210000000000001-4 4-2.210000000000008 4 0 4 2.210000000000008 2.210000000000001 4 0 4-2.210000000000001 4-4 2.210000000000008-4 0" fill="none" stroke="#ff0000" stroke-miterlimit="10" pointer-events="all" stroke-linecap="round" stroke-linejoin="round"/></g><g id="cell-hIaIk35ZCeuE_1UZrpfz-1" layer="Option1"><path d="M0 32L0-96" fill="none" stroke="rgb(0, 0, 0)" stroke-miterlimit="10" pointer-events="stroke" stroke-linecap="round" stroke-linejoin="round"/></g><g id="cell-hIaIk35ZCeuE_1UZrpfz-2" layer="Option1"><path d="M32 32L32-32" fill="none" stroke="rgb(0, 0, 0)" stroke-miterlimit="10" pointer-events="stroke" stroke-linecap="round" stroke-linejoin="round"/></g><g id="cell-hIaIk35ZCeuE_1UZrpfz-3" layer="Option1"><path d="M-32 32L-32-32" fill="none" stroke="rgb(0, 0, 0)" stroke-miterlimit="10" pointer-events="stroke" stroke-linecap="round" stroke-linejoin="round"/></g><g id="cell-hIaIk35ZCeuE_1UZrpfz-4" layer="Option1"><path fill="#000000" stroke="rgb(0, 0, 0)" pointer-events="all" d="M-24-120a24 24 0 1 0 48 0 24 24 0 1 0-48 0" stroke-linecap="round" stroke-linejoin="round"/></g><g id="cell-hIaIk35ZCeuE_1UZrpfz-5" layer="Option1"><path fill="none" stroke="rgb(0, 0, 0)" pointer-events="all" d="M-24-168a24 24 0 1 0 48 0 24 24 0 1 0-48 0" stroke-linecap="round" stroke-linejoin="round"/></g></g></svg>