<?xml version="1.0" encoding="UTF-8"?><!DOCTYPE svg PUBLIC "-//W3C//DTD SVG 1.1//EN" "http://www.w3.org/Graphics/SVG/1.1/DTD/svg11.dtd"><svg xmlns="http://www.w3.org/2000/svg" xmlns:xlink="http://www.w3.org/1999/xlink" version="1.1" width="130px" height="130px" viewBox="-64.5 -32.5 130 130"><defs/><g><g id="cell-7xawzR34rVSaUxmEOZxD-1" layer="Option1"><path d="M64 32.00000000000001L0 0 64-32Z" fill="#000000" stroke="rgb(0, 0, 0)" stroke-miterlimit="10" pointer-events="all" stroke-linecap="round" stroke-linejoin="round"/></g><g id="cell-7xawzR34rVSaUxmEOZxD-2" layer="Option1"><path d="M-64-32L0 0-64 32Z" fill="#000000" stroke="rgb(0, 0, 0)" stroke-miterlimit="10" pointer-events="all" stroke-linecap="round" stroke-linejoin="round"/></g><g id="cell-7xawzR34rVSaUxmEOZxD-3" layer="Option1"><path d="M7.030000000000001 32L-7.030000000000001 32 0 64Z" fill="rgb(0, 0, 0)" stroke="rgb(0, 0, 0)" stroke-miterlimit="10" pointer-events="all" stroke-linecap="round" stroke-linejoin="round"/></g><g id="cell-7xawzR34rVSaUxmEOZxD-4" layer="Option1"><path d="M0 32L0-32" fill="none" stroke="rgb(0, 0, 0)" stroke-miterlimit="10" pointer-events="stroke" stroke-linecap="round" stroke-linejoin="round"/></g><g id="cell-OxFjoSKdfpgckHMKP-ke-3" content="&lt;object label=&quot;%LabelLines%&amp;amp;nbsp; &amp;amp;nbsp; &amp;amp;nbsp; &amp;amp;nbsp; &amp;amp;nbsp; &amp;amp;nbsp;%LabelIndex%&quot; placeholders=&quot;1&quot; LabelLines=&quot;3&quot; LabelIndex=&quot;A&quot;/&gt;" data-label="%LabelLines%&amp;nbsp; &amp;nbsp; &amp;nbsp; &amp;nbsp; &amp;nbsp; &amp;nbsp;%LabelIndex%" data-placeholders="1" data-LabelLines="3" data-LabelIndex="A" layer="Label"><path fill="none" stroke="#ff0000" pointer-events="all" d="M-48 80L48 80 48 96-48 96z" stroke-linecap="round" stroke-linejoin="round"/><g><text x="18" y="123" fill="#FF0000" font-family="Helvetica" font-size="10px" transform="translate(-64 -32) translate(-0.5 -0.5)" stroke-linecap="round" stroke-linejoin="round">3           A</text></g></g><g id="cell-OxFjoSKdfpgckHMKP-ke-2" content="&lt;object label=&quot;origo&quot;/&gt;" data-label="origo" layer="Origo"><path d="M-4-0.07000000000000028C-4-2.2399999999999984-2.240000000000002-4-0.060000000000002274-4 2.1099999999999994-4 3.8700000000000045-2.2399999999999984 3.8700000000000045-0.07000000000000028 3.8700000000000045 1.3400000000000034 3.1200000000000045 2.6400000000000006 1.9099999999999966 3.3400000000000034 0.6899999999999977 4.049999999999997-0.8100000000000023 4.049999999999997-2.030000000000001 3.3400000000000034-3.25 2.6400000000000006-4 1.3400000000000034-4-0.07000000000000028" fill="none" stroke="#ff0000" stroke-miterlimit="10" pointer-events="all" stroke-linecap="round" stroke-linejoin="round"/></g></g></svg>