<?xml version="1.0" encoding="UTF-8"?><!DOCTYPE svg PUBLIC "-//W3C//DTD SVG 1.1//EN" "http://www.w3.org/Graphics/SVG/1.1/DTD/svg11.dtd"><svg xmlns="http://www.w3.org/2000/svg" xmlns:xlink="http://www.w3.org/1999/xlink" version="1.1" width="171.966mm" height="205.83mm" viewBox="-0.5625 -0.5625 40.625 48.625"><defs vector-effect="non-scaling-stroke"/><g><g id="cell-qMdmYb9l_b1JFHeHj_cX-10" layer="Symbol"><path fill="#000000" stroke="rgb(0, 0, 0)" pointer-events="all" d="M3 41.875a1 1 0 1 0 2 0 1 1 0 1 0-2 0" stroke-width="0.25" stroke-linecap="round" stroke-linejoin="round"/></g><g id="cell-qMdmYb9l_b1JFHeHj_cX-6" layer="Symbol"><path fill="#000000" stroke="rgb(0, 0, 0)" pointer-events="all" d="M23 41.875a1 1 0 1 0 2 0 1 1 0 1 0-2 0" stroke-width="0.25" stroke-linecap="round" stroke-linejoin="round"/></g><g id="cell-qMdmYb9l_b1JFHeHj_cX-5" layer="Symbol"><path d="M14 12L24 4" fill="none" stroke="rgb(0, 0, 0)" stroke-miterlimit="10" pointer-events="stroke" stroke-width="0.25" stroke-linecap="round" stroke-linejoin="round"/></g><g id="cell-qMdmYb9l_b1JFHeHj_cX-4" layer="Symbol"><path d="M14 11.9975L4 4" fill="none" stroke="rgb(0, 0, 0)" stroke-miterlimit="10" pointer-events="stroke" stroke-width="0.25" stroke-linecap="round" stroke-linejoin="round"/></g><g id="cell-qMdmYb9l_b1JFHeHj_cX-3" layer="Symbol"><path d="M24 40.875L24 4" fill="none" stroke="rgb(0, 0, 0)" stroke-miterlimit="10" pointer-events="stroke" stroke-width="0.25" stroke-linecap="round" stroke-linejoin="round"/></g><g id="cell-qMdmYb9l_b1JFHeHj_cX-2" layer="Symbol"><path d="M4 40.875L4.00625 4.00375" fill="none" stroke="rgb(0, 0, 0)" stroke-miterlimit="10" pointer-events="stroke" stroke-width="0.25" stroke-linecap="round" stroke-linejoin="round"/></g><g id="cell-qMdmYb9l_b1JFHeHj_cX-1" layer="Symbol"><path fill="none" stroke="rgb(0, 0, 0)" pointer-events="all" d="M0 34L28 34 28 48 0 48z" stroke-width="0.25" stroke-linecap="round" stroke-linejoin="round"/></g><g id="cell-qMdmYb9l_b1JFHeHj_cX-0" layer="Symbol"><path fill="none" stroke="rgb(0, 0, 0)" pointer-events="all" d="M0 0L28 0 28 14 0 14z" stroke-width="0.25" stroke-linecap="round" stroke-linejoin="round"/></g><g id="cell-0EZxqZ7MqNbMJLGOdVPv-3" content="&lt;object label=&quot;%LabelLines%&amp;amp;nbsp; &amp;amp;nbsp; &amp;amp;nbsp; &amp;amp;nbsp; &amp;amp;nbsp; &amp;amp;nbsp;%LabelIndex%&quot; placeholders=&quot;1&quot; LabelLines=&quot;1&quot; LabelIndex=&quot;A&quot;/&gt;" data-label="%LabelLines%&amp;nbsp; &amp;nbsp; &amp;nbsp; &amp;nbsp; &amp;nbsp; &amp;nbsp;%LabelIndex%" data-placeholders="1" data-LabelLines="1" data-LabelIndex="A" layer="Label"><path fill="none" stroke="#ff0000" pointer-events="all" d="M30 22L40 22 40 24 30 24z" vector-effect="non-scaling-stroke" stroke-linecap="round" stroke-linejoin="round"/><g><text x="246" y="191" fill="#FF0000" font-family="Helvetica" font-size="10px" transform="scale(0.125 0.125) translate(-4 -4) translate(-0.5 -0.5)" vector-effect="non-scaling-stroke" stroke-linecap="round" stroke-linejoin="round">1           A</text></g></g><g id="cell-2vd_WDEaPEVIG9Tk2RO--0" content="&lt;object label=&quot;origo&quot;/&gt;" data-label="origo" layer="Origo"><ellipse cx="0" cy="0" rx="0.25" ry="0.25" fill="none" stroke="#ff0000" vector-effect="non-scaling-stroke"/></g></g></svg>