<?xml version="1.0" encoding="UTF-8"?><!DOCTYPE svg PUBLIC "-//W3C//DTD SVG 1.1//EN" "http://www.w3.org/Graphics/SVG/1.1/DTD/svg11.dtd"><svg xmlns="http://www.w3.org/2000/svg" xmlns:xlink="http://www.w3.org/1999/xlink" version="1.1" width="102.915mm" height="43.3882mm" viewBox="-0.28125 -0.28125 24.3125 10.25"><defs vector-effect="non-scaling-stroke"/><g><g id="cell-m6T33e_Z8T_IFA4XhIIA-2" layer="Symbol"><path fill="none" stroke="rgb(0, 0, 0)" pointer-events="all" d="M12.125 3.9375a3 3 0 1 0 6 0 3 3 0 1 0-6 0" stroke-width="0.25" stroke-linecap="round" stroke-linejoin="round"/></g><g id="cell-m6T33e_Z8T_IFA4XhIIA-1" layer="Symbol"><path fill="none" stroke="rgb(0, 0, 0)" pointer-events="all" d="M6.125 3.9375a3 3 0 1 0 6 0 3 3 0 1 0-6 0" stroke-width="0.25" stroke-linecap="round" stroke-linejoin="round"/></g><g id="cell-m6T33e_Z8T_IFA4XhIIA-0" layer="Symbol"><path fill="none" stroke="rgb(0, 0, 0)" pointer-events="all" d="M0 0L24 0 24 8 0 8z" stroke-width="0.25" stroke-linecap="round" stroke-linejoin="round"/></g><g id="cell-MAk1VC-pqEa6ilZfhNB5-16" content="&lt;object label=&quot;%LabelLines%&amp;amp;nbsp; &amp;amp;nbsp; &amp;amp;nbsp; &amp;amp;nbsp; &amp;amp;nbsp; &amp;amp;nbsp;%LabelIndex%&quot; placeholders=&quot;1&quot; LabelLines=&quot;1&quot; LabelIndex=&quot;A&quot;/&gt;" data-label="%LabelLines%&amp;nbsp; &amp;nbsp; &amp;nbsp; &amp;nbsp; &amp;nbsp; &amp;nbsp;%LabelIndex%" data-placeholders="1" data-LabelLines="1" data-LabelIndex="A" layer="Label"><path fill="none" stroke="#ff0000" pointer-events="all" d="M9.625 8.9375L14.625 8.9375 14.625 9.9375 9.625 9.9375z" vector-effect="non-scaling-stroke" stroke-linecap="round" stroke-linejoin="round"/><g><text x="160" y="158" fill="#FF0000" font-family="Helvetica" font-size="10px" transform="scale(0.0625 0.0625) translate(-4 -4) translate(-0.5 -0.5)" vector-effect="non-scaling-stroke" stroke-linecap="round" stroke-linejoin="round">1           A</text></g></g><g id="cell-pEtjtcBWMfalJ67Uv4dw-28" content="&lt;object label=&quot;origo&quot;/&gt;" data-label="origo" layer="Origo"><ellipse cx="0" cy="0" rx="0.25" ry="0.25" fill="none" stroke="#ff0000" vector-effect="non-scaling-stroke"/></g></g></svg>